<svg width="71" height="71" viewBox="0 0 71 71" fill="none" xmlns="http://www.w3.org/2000/svg">
<g id="skill-icons:androidstudio-light" clip-path="url(#clip0_27_494)">
<g id="Group">
<path id="Vector" d="M54.0938 0.599976H16.9062C7.84533 0.599976 0.5 7.9453 0.5 17.0062V54.1937C0.5 63.2546 7.84533 70.6 16.9062 70.6H54.0938C63.1547 70.6 70.5 63.2546 70.5 54.1937V17.0062C70.5 7.9453 63.1547 0.599976 54.0938 0.599976Z" fill="#F4F2ED"/>
<path id="Vector_2" d="M29.7655 13.9486H17.1217C14.6039 13.9486 12.5343 16.0984 12.5343 18.7603C12.444 21.3295 14.4229 23.4785 16.8981 23.5717H29.9006L29.7655 13.9486Z" fill="#073042"/>
<path id="Vector_3" d="M58.4236 56.7375H17.122C14.5588 56.7375 12.5342 54.5888 12.5342 51.9261V18.7144C12.5342 21.3763 14.6039 23.5252 17.122 23.5717H51.7203C51.7203 23.5717 58.4687 22.9652 58.4687 28.2437V56.7375H58.4236Z" fill="#4285F4"/>
<path id="Vector_4" d="M39.1676 39.7343C41.0122 38.2865 41.372 35.5772 39.9786 33.7083C39.213 32.6807 38.0432 32.0269 36.7829 31.9799H36.918C37.1561 31.9334 37.401 31.9334 37.6391 31.9799V29.3174C37.6391 28.9904 37.5035 28.7101 37.2336 28.5704C36.8283 28.3366 36.3337 28.4769 36.1089 28.8972C36.0187 29.0374 35.9738 29.1774 36.0187 29.3642V32.0731C33.7694 32.4469 32.1947 34.6426 32.5537 37.0254V37.0719C32.7344 38.1929 33.3199 39.2208 34.2192 39.8746L26.6157 56.7842H31.5649L35.0737 49.0301C35.4795 48.0955 36.5587 47.6755 37.5035 48.1425C37.8641 48.3295 38.1783 48.6563 38.3582 49.0301L42.0031 56.7842H47.0415L39.1676 39.7343ZM36.6036 38.987C35.1637 38.987 34.039 37.7724 34.039 36.2781C34.039 34.7826 35.2088 33.6151 36.6481 33.6615C37.323 33.6615 37.909 33.9421 38.4031 34.4097C39.4378 35.4367 39.4378 37.1186 38.4479 38.1929C37.9984 38.6603 37.323 38.987 36.6036 38.987Z" fill="#3870B2"/>
<path id="Vector_5" d="M27.0212 16.2852H44.7471V19.6482H27.0212V16.2852Z" fill="white"/>
<path id="Vector_6" d="M35.2539 33.615C36.6482 33.615 37.8187 34.8297 37.7739 36.3243C37.7739 37.7724 36.6036 38.987 35.1637 38.9402C33.7694 38.9402 32.6442 37.7259 32.6442 36.278C32.6442 35.5772 32.9138 34.9229 33.4101 34.4097C33.9042 33.8953 34.5785 33.615 35.2539 33.615ZM36.2437 32.0731V29.2707C36.2437 28.9436 36.1089 28.6636 35.8391 28.5231C35.4344 28.2896 34.9392 28.4298 34.7133 28.8504C34.6231 28.9904 34.5785 29.1307 34.6231 29.3174V32.0269C32.3738 32.4002 30.7991 34.5964 31.1603 36.9786V37.0254C31.3405 38.1456 31.9245 39.1738 32.8244 39.8273L23.2415 61.1751C22.882 61.9232 22.9268 62.8567 23.4217 63.5575C24.1406 64.6316 25.5365 64.9119 26.5701 64.1649C26.931 63.9311 27.2009 63.5575 27.3805 63.1838L33.7694 48.9831C34.1741 48.049 35.2539 47.6284 36.1989 48.0955C36.5587 48.2825 36.8732 48.6098 37.0534 48.9831L43.5771 63.0438C44.1177 64.2113 45.4665 64.6784 46.5923 64.1175C47.7161 63.5575 48.1664 62.1559 47.6261 60.9881L37.7739 39.7343C39.5731 38.2391 39.8884 35.4837 38.4479 33.615C37.909 32.8675 37.1436 32.3537 36.2437 32.0731Z" fill="#073042"/>
<path id="Vector_7" d="M42.138 19.2747C41.4623 19.2747 40.9225 18.7603 40.9225 18.0601C40.9225 17.733 41.0571 17.3595 41.2821 17.1257C41.7773 16.659 42.4975 16.659 42.9925 17.1257C43.2206 17.3652 43.3492 17.6825 43.352 18.0133C43.3072 18.7141 42.8123 19.2279 42.138 19.2747ZM28.8205 19.2279C28.1445 19.2279 27.6056 18.6674 27.6056 18.0133C27.6056 17.6863 27.7409 17.3595 27.9649 17.1257C28.3701 16.6122 29.136 16.5184 29.6301 16.9395H29.6752C30.1696 17.4063 30.2145 18.2001 29.7655 18.7141L29.6301 18.9003C29.4056 19.1341 29.0912 19.2747 28.7751 19.2747L28.8205 19.2279ZM42.4975 11.707L44.8819 7.40966C45.0167 7.17615 44.9268 6.89587 44.7471 6.70912C44.5221 6.6156 44.2976 6.66236 44.1628 6.84939L41.6876 11.2867C37.7288 9.46509 33.2299 9.46509 29.3157 11.2867L26.8862 6.89587C26.7959 6.75587 26.6155 6.6156 26.435 6.6156C26.2556 6.6156 26.0754 6.70912 25.9849 6.89587C25.8952 7.03615 25.8952 7.26939 25.9849 7.40966L28.4152 11.707C24.1852 14.0886 21.4412 18.5741 21.0374 23.5253H49.9203C49.5613 18.5276 46.7714 14.0886 42.5424 11.707" fill="#3DDC84"/>
<path id="Vector_8" d="M54.4684 32.8216H52.5786C52.4881 32.8675 52.3984 32.961 52.3984 33.101V64.1649C52.3984 64.3046 52.4881 64.3981 52.624 64.3981H54.6032C56.8976 64.3981 58.7422 62.436 58.7422 60.1008V28.4769C58.7422 30.8591 56.8976 32.7745 54.6032 32.7745H54.4684V32.8216Z" fill="#073042"/>
</g>
</g>
<defs>
<clipPath id="clip0_27_494">
<rect width="70" height="70" fill="white" transform="translate(0.5 0.599976)"/>
</clipPath>
</defs>
</svg>
