<svg width="71" height="71" viewBox="0 0 71 71" fill="none" xmlns="http://www.w3.org/2000/svg">
<g id="skill-icons:typescript" clip-path="url(#clip0_27_490)">
<g id="Group">
<path id="Vector" d="M54.0938 0.599976H16.9062C7.84533 0.599976 0.5 7.9453 0.5 17.0062V54.1937C0.5 63.2546 7.84533 70.6 16.9062 70.6H54.0938C63.1547 70.6 70.5 63.2546 70.5 54.1937V17.0062C70.5 7.9453 63.1547 0.599976 54.0938 0.599976Z" fill="#007ACC"/>
<path id="Vector_2" d="M15.9795 35.8321L15.9574 38.6989H25.0683V64.5876H31.5133V38.6989H40.6242V35.8876C40.6242 34.3321 40.5911 33.0321 40.5465 32.9988C40.5132 32.9545 34.9687 32.9321 28.2465 32.9433L16.0132 32.9766L15.9795 35.8321ZM56.9831 32.8951C58.7608 33.3398 60.1165 34.1286 61.3609 35.4173C62.0054 36.1064 62.9608 37.362 63.0387 37.662C63.0608 37.7508 60.0164 39.7953 58.172 40.9397C58.1053 40.9842 57.8385 40.6952 57.5385 40.2509C56.6386 38.9398 55.6942 38.3729 54.2496 38.2731C52.1274 38.1285 50.7608 39.2397 50.772 41.0953C50.772 41.6397 50.8497 41.9618 51.072 42.4064C51.5385 43.373 52.4053 43.9508 55.1276 45.1285C60.1386 47.2842 62.2829 48.7064 63.6165 50.7285C65.1053 52.9841 65.4386 56.5841 64.4275 59.2619C63.3165 62.1729 60.5608 64.1507 56.6829 64.8064C55.4831 65.0175 52.6385 64.9841 51.3498 64.7509C48.5386 64.2508 45.872 62.862 44.2276 61.0398C43.5831 60.3286 42.3274 58.473 42.4054 58.3396C42.4385 58.2953 42.7275 58.1176 43.0496 57.9286C43.3608 57.7509 44.5387 57.073 45.6497 56.4285L47.6608 55.2618L48.083 55.8841C48.672 56.784 49.9607 58.0175 50.7386 58.4285C52.9718 59.6064 56.0387 59.4396 57.5497 58.0842C58.1942 57.4952 58.4608 56.8841 58.4608 55.9842C58.4608 55.1729 58.3607 54.8175 57.9385 54.2063C57.3941 53.4287 56.2831 52.773 53.1274 51.4063C49.5164 49.8507 47.9608 48.8841 46.5386 47.3507C45.7164 46.462 44.9385 45.0396 44.6164 43.8507C44.3498 42.8619 44.2831 40.3841 44.4942 39.3841C45.2385 35.8953 47.8719 33.462 51.6719 32.7396C52.9054 32.5063 55.7718 32.5952 56.9831 32.8951Z" fill="white"/>
</g>
</g>
<defs>
<clipPath id="clip0_27_490">
<rect width="70" height="70" fill="white" transform="translate(0.5 0.599976)"/>
</clipPath>
</defs>
</svg>
