<svg width="71" height="71" viewBox="0 0 71 71" fill="none" xmlns="http://www.w3.org/2000/svg">
<g id="skill-icons:expressjs-light" clip-path="url(#clip0_27_531)">
<g id="Group">
<path id="Vector" d="M54.0938 0.599976H16.9062C7.84533 0.599976 0.5 7.9453 0.5 17.0062V54.1937C0.5 63.2546 7.84533 70.6 16.9062 70.6H54.0938C63.1547 70.6 70.5 63.2546 70.5 54.1937V17.0062C70.5 7.9453 63.1547 0.599976 54.0938 0.599976Z" fill="#F4F2ED"/>
<path id="Vector_2" d="M62.8438 50.6218C62.0477 50.9233 61.1689 50.9227 60.3733 50.6201C59.5776 50.3176 58.9205 49.734 58.5259 48.9798C56.0477 45.2701 53.3112 41.7277 50.681 38.1093L49.5405 36.589C46.4085 40.7852 43.2766 44.814 40.4183 48.9951C40.046 49.716 39.4244 50.2769 38.6692 50.5734C37.914 50.8699 37.0768 50.8818 36.3135 50.6068L48.0658 34.8406L37.1343 20.5945C37.9212 20.3104 38.7821 20.3065 39.5715 20.5834C40.361 20.8604 41.0306 21.4013 41.4675 22.1148C44.0064 25.8248 46.8192 29.3672 49.6165 33.1226C52.4293 29.3976 55.2116 25.8399 57.8114 22.1605C58.1858 21.4514 58.8078 20.9046 59.5591 20.6243C60.3104 20.3439 61.1385 20.3496 61.8859 20.6402L57.6441 26.2656C55.7437 28.7741 53.8736 31.298 51.8972 33.7458C51.7379 33.8883 51.6104 34.0629 51.5231 34.2581C51.4358 34.4533 51.3907 34.6647 51.3907 34.8785C51.3907 35.0923 51.4358 35.3037 51.5231 35.4989C51.6104 35.6941 51.7379 35.8687 51.8972 36.0112C55.5309 40.8308 59.134 45.6655 62.8438 50.6218ZM8.15625 34.6429C8.47563 33.1226 8.67305 31.4653 9.1141 29.9147C11.7443 20.5645 22.4628 16.6721 29.8366 22.4648C34.1544 25.8555 35.2339 30.6598 35.0212 36.0722H10.6954C10.3 45.7418 17.2784 51.5799 26.2029 48.6C27.6505 48.0821 28.9465 47.2119 29.9737 46.0678C31.0009 44.9238 31.7271 43.542 32.0867 42.0471C32.5581 40.5268 33.3182 40.2684 34.7625 40.7091C34.5247 42.5601 33.8703 44.333 32.8486 45.8946C31.8269 47.4561 30.4644 48.7658 28.8637 49.7249C26.2189 51.1714 23.1844 51.7444 20.1943 51.3621C17.2042 50.9798 14.4115 49.6618 12.2157 47.5965C10.0433 45.1539 8.72981 42.0677 8.47562 38.8088C8.47562 38.292 8.27793 37.7749 8.17156 37.2884C8.1615 36.4066 8.1564 35.5248 8.15625 34.6429ZM10.7257 33.9891H32.7254C32.5884 26.9804 28.1642 22.0088 22.2654 21.9634C15.6974 21.872 10.9995 26.737 10.7104 33.9588L10.7257 33.9891Z" fill="#0F0F0F"/>
</g>
</g>
<defs>
<clipPath id="clip0_27_531">
<rect width="70" height="70" fill="white" transform="translate(0.5 0.599976)"/>
</clipPath>
</defs>
</svg>
