<svg width="70" height="71" viewBox="0 0 70 71" fill="none" xmlns="http://www.w3.org/2000/svg">
<g id="skill-icons:linux-light" clip-path="url(#clip0_27_504)">
<g id="Group">
<path id="Vector" d="M53.5938 0.599976H16.4062C7.34533 0.599976 0 7.9453 0 17.0062V54.1937C0 63.2546 7.34533 70.6 16.4062 70.6H53.5938C62.6547 70.6 70 63.2546 70 54.1937V17.0062C70 7.9453 62.6547 0.599976 53.5938 0.599976Z" fill="#F4F2ED"/>
<path id="Vector_2" d="M23.502 55.2672L30.2094 58.9914H40.3528L49.8416 51.867L54.0952 40.6946L44.2791 28.8747L41.498 22.2362L27.9191 22.7218L28.0826 26.4461L25.465 31.3034L21.3749 39.2375L20.557 45.876L23.502 55.2672Z" fill="#ECEFF1"/>
<path id="Vector_3" d="M51.1503 31.9513C48.5327 28.227 46.4059 25.9602 45.2607 21.2648C44.1156 16.569 45.588 17.8646 44.6064 13.8163C44.1156 11.7117 43.2975 10.2543 42.4796 9.12087C41.498 7.98747 40.3528 7.3397 39.6982 7.17782C38.226 6.36845 34.7903 5.0729 30.5367 7.3397C26.1193 9.60649 26.6101 14.4641 27.4282 24.3412C27.4282 24.9887 27.2644 25.7986 26.9374 26.4461C26.2831 27.9036 25.1377 29.1986 24.1563 30.3322C23.0109 31.9513 21.8657 33.5706 21.0478 35.3515C19.0846 39.0757 17.2848 43.7711 17.7756 45.5523C18.5937 45.3904 28.9007 60.9345 28.9007 61.2583C29.555 61.0964 32.3362 61.0964 34.7903 61.0964C38.226 60.9345 40.189 60.7727 42.9704 61.4202C42.9704 60.9345 42.8066 60.4486 42.8066 59.963C42.8066 58.9915 42.9704 58.1818 43.1339 57.0484C43.2975 56.2388 43.4612 55.4294 43.6248 54.4579C41.9888 55.9151 39.0439 57.5343 36.2627 58.02C33.8086 58.5056 29.7185 57.6962 27.7553 55.2673C27.9191 55.2673 28.2461 55.2673 28.4099 55.1054C28.9007 54.9435 29.3915 54.7817 29.555 54.4579C30.0459 53.6483 29.7186 52.8386 29.3915 52.353C29.0642 51.8671 26.6101 50.0859 25.465 49.1147C24.3198 48.1431 23.6655 47.6572 23.0109 47.0097L21.7022 45.7142C21.3749 45.3904 21.2114 45.0667 21.0478 44.9045C20.7205 44.0952 20.557 43.1236 20.7205 41.8284C20.8841 40.0472 21.5384 38.5898 22.3565 36.9708C22.6838 36.323 23.5017 35.0277 23.5017 35.0277C23.5017 35.0277 20.7205 41.8284 22.193 43.9333C22.193 43.9333 22.3565 41.8284 23.0109 39.7234C23.5017 38.266 24.3198 36.1611 25.3014 35.0277C26.2831 33.8943 28.7369 29.6845 28.9007 27.0936C28.9007 25.9602 29.0642 24.8268 29.0642 24.0175C28.4099 23.3694 39.862 21.7507 40.5163 23.5316C40.6798 24.1793 42.9704 30.0082 44.2791 33.0847C44.9334 34.5421 45.7516 35.8374 46.2424 37.4564C46.7332 39.2375 47.0602 41.6662 47.0602 44.0952C47.0602 44.5808 47.0602 45.3904 46.8967 46.2001C47.224 46.2001 53.6044 39.3994 46.0789 33.7324C46.0789 33.7324 50.6595 35.8374 50.8233 40.0472C50.9868 43.4474 49.5143 46.2001 49.1873 46.6857C49.3508 46.6857 52.6228 48.1431 52.7863 48.1431C53.4409 48.1431 54.7496 47.6572 54.7496 47.6572C54.9134 47.1716 55.4039 45.8761 55.4039 45.3904C56.5493 41.6662 53.7679 35.6755 51.1503 31.9513Z" fill="#263238"/>
<path id="Vector_4" d="M30.3729 21.2648C31.5476 21.2648 32.4997 19.8148 32.4997 18.0265C32.4997 16.2379 31.5476 14.7882 30.3729 14.7882C29.1985 14.7882 28.2461 16.2379 28.2461 18.0265C28.2461 19.8148 29.1985 21.2648 30.3729 21.2648ZM37.7349 21.5885C39.2711 21.5885 40.5163 19.9211 40.5163 17.8643C40.5163 15.8078 39.2711 14.1404 37.7349 14.1404C36.199 14.1404 34.9538 15.8078 34.9538 17.8646C34.9538 19.9211 36.199 21.5885 37.7349 21.5885Z" fill="#ECEFF1"/>
<path id="Vector_5" d="M31.5612 18.2479C31.4253 17.1834 30.8063 16.3839 30.1787 16.4623C29.5515 16.5408 29.1528 17.4675 29.289 18.5323C29.4249 19.5968 30.0437 20.3963 30.6712 20.3178C31.2987 20.2391 31.6971 19.3124 31.5612 18.2479ZM37.5717 20.6169C38.4751 20.6169 39.2076 19.6747 39.2076 18.512C39.2076 17.3496 38.4751 16.4071 37.5717 16.4071C36.668 16.4071 35.9354 17.3496 35.9354 18.512C35.9354 19.6747 36.668 20.6169 37.5717 20.6169Z" fill="#212121"/>
<path id="Vector_6" d="M59.3305 54.1338C58.6761 53.8101 57.5307 53.3242 56.5491 51.867C56.0585 51.0574 56.222 48.7906 55.4039 47.819C54.9131 47.1716 54.2588 47.4953 54.0952 47.4953C52.6228 47.8191 49.187 50.0858 46.8967 47.4953C46.5694 47.1716 46.0786 46.6857 45.2608 46.6857C44.4426 46.6857 44.1156 47.0094 43.7883 47.6572C43.461 48.305 43.461 48.7906 43.461 50.4099C43.461 51.7051 43.461 53.1623 43.2975 54.2957C42.9702 57.0484 42.4796 58.6677 42.4796 60.2867C42.4796 62.0679 42.9702 63.2013 43.6248 63.6869C44.1156 64.1728 44.9335 64.4966 46.7332 64.4966C48.5327 64.4966 49.6779 63.8491 50.8233 62.7154C51.6411 61.906 52.2955 61.582 54.5861 59.963C56.3856 58.8296 59.167 57.3721 59.6575 56.8865C59.9848 56.5628 60.4756 56.4006 60.4756 55.4291C60.4756 54.6197 59.8213 54.2957 59.3305 54.1338ZM26.4466 54.6197C24.8106 52.0289 24.6468 51.5433 23.5017 49.924C22.5201 48.3049 20.3933 45.2285 19.0846 45.2285C18.1029 45.2285 17.6121 45.7141 16.9578 46.3619C16.3032 47.0094 15.6488 48.4668 14.5037 49.2765C13.522 50.0858 10.7409 49.924 10.0866 50.8955C9.43197 51.867 10.7409 53.3244 10.7409 55.7531C10.7409 56.7246 9.92279 57.3721 9.75927 58.0199C9.59575 58.8296 9.43197 59.3152 9.75927 59.963C10.4136 60.9345 11.2317 61.2582 16.794 62.3916C19.7389 63.0394 22.5201 64.6584 24.3198 64.8206C26.1193 64.9825 29.2277 64.8206 29.2277 60.4486C29.3915 57.858 27.9191 57.2103 26.4466 54.6197ZM29.555 25.3127C28.5734 24.6649 27.7553 24.0171 27.7553 23.0459C27.7553 22.0744 28.4099 21.7503 29.3915 20.941C29.555 20.7788 31.3545 19.1598 33.1543 19.1598C34.9538 19.1598 37.0806 20.2932 37.8987 20.6172C39.3712 20.9407 40.8434 21.2647 40.6799 22.3981C40.5163 24.0171 40.3528 24.3412 38.7166 25.1508C37.5714 25.4746 35.4446 27.2557 33.9722 27.2557C33.3178 27.2557 32.3362 27.2557 31.6818 27.0936C31.191 26.9317 30.3729 26.1221 29.555 25.3127Z" fill="#FFC107"/>
<path id="Vector_7" d="M29.2277 24.0172C29.555 24.3412 30.0459 24.6652 30.5367 24.8268C30.8637 24.9887 31.3545 25.1508 31.3545 25.1508H32.827C33.6451 25.1508 34.7903 24.8268 35.9354 24.1793C37.0806 23.6934 37.2444 23.3697 38.0622 23.0459C38.8804 22.56 39.6982 22.0744 39.3712 21.9125C39.0439 21.7504 38.7166 21.9125 37.5714 22.56C36.5898 23.2078 35.7719 23.5315 34.7903 24.0174C34.2995 24.1793 33.6451 24.5031 33.1543 24.5031H31.6818C31.191 24.5031 30.8637 24.3412 30.3729 24.1793C30.0459 24.0172 29.8821 23.8553 29.7186 23.8553C29.3915 23.6934 28.7369 23.0459 28.4099 22.8838C28.4099 22.8838 28.0826 22.8838 28.2461 23.0459L29.2277 24.0172ZM34.1359 20.4551C34.2995 20.7788 34.6268 20.7788 34.7903 20.9407C34.9538 21.1029 35.1176 21.1029 35.1176 21.1029C35.2811 20.9407 35.1176 20.617 34.9538 20.617C34.9538 20.2932 34.1359 20.2932 34.1359 20.4551ZM31.5183 20.7788C31.5183 20.941 31.8454 21.1029 31.8454 20.941C32.0091 20.7788 32.1727 20.617 32.3362 20.617C32.6635 20.4551 32.4997 20.2932 32.0091 20.2932C31.6818 20.4551 31.6818 20.617 31.5183 20.7788Z" fill="#634703"/>
<path id="Vector_8" d="M47.3875 49.4384V49.924C47.7148 50.5718 48.5327 50.7337 49.187 50.7337C50.1687 50.7337 51.1503 50.0859 51.6411 49.4384C51.6411 49.2765 51.8046 49.1144 51.9684 48.9525C52.2954 48.4669 52.4592 48.1431 52.6228 47.981C52.6228 47.981 52.4592 47.8191 52.4592 47.6572C52.2954 47.3335 51.8046 47.0094 51.1503 46.8476C50.6595 46.6857 49.8416 46.5238 49.5143 46.5238C48.0419 46.3619 47.224 46.8476 46.7332 47.3335C46.7332 47.3335 46.8967 47.3335 46.8967 47.4953C47.224 47.8191 47.3875 48.1431 47.3875 48.6287C47.551 48.9525 47.3875 49.1144 47.3875 49.4384Z" fill="#455A64"/>
</g>
</g>
<defs>
<clipPath id="clip0_27_504">
<rect width="70" height="70" fill="white" transform="translate(0 0.599976)"/>
</clipPath>
</defs>
</svg>
