<svg width="70" height="70" viewBox="0 0 70 70" fill="none" xmlns="http://www.w3.org/2000/svg">
<g id="skill-icons:nextjs-light" clip-path="url(#clip0_27_527)">
<g id="Group">
<path id="Vector" d="M53.5938 0H16.4062C7.34533 0 0 7.34533 0 16.4062V53.5938C0 62.6547 7.34533 70 16.4062 70H53.5938C62.6547 70 70 62.6547 70 53.5938V16.4062C70 7.34533 62.6547 0 53.5938 0Z" fill="#F4F2ED"/>
<path id="Vector_2" d="M33.2092 7.67104C33.0917 7.6817 32.7173 7.71916 32.3804 7.74569C24.6132 8.44596 17.3375 12.6372 12.7293 19.0789C10.1636 22.6606 8.5222 26.7233 7.90231 31.027C7.68329 32.5292 7.65649 32.973 7.65649 35.0096C7.65649 37.0464 7.68329 37.4902 7.90259 38.9922C9.38845 49.2614 16.6963 57.8897 26.6074 61.0865C28.3822 61.6585 30.2531 62.0487 32.3807 62.2839C33.2095 62.3747 36.791 62.3747 37.6198 62.2839C41.2923 61.8776 44.4035 60.9689 47.472 59.4024C47.9423 59.1621 48.0334 59.0978 47.9691 59.0445C47.9265 59.0122 45.9216 56.3232 43.5162 53.0731L39.1434 47.1661L33.6637 39.0565C30.6488 34.5981 28.1684 30.9521 28.1468 30.9521C28.1255 30.9469 28.1041 34.5499 28.0935 38.9496C28.0774 46.6528 28.0722 46.9629 27.9759 47.1445C27.837 47.4064 27.7301 47.5133 27.5053 47.6312C27.3344 47.7165 27.1846 47.7326 26.3774 47.7326H25.4526L25.2065 47.5776C25.0542 47.4822 24.9304 47.3473 24.8483 47.1874L24.7362 46.9468L24.7472 36.2286L24.763 25.5049L24.9287 25.2963C25.0143 25.1842 25.1961 25.0398 25.3244 24.9703C25.5434 24.8634 25.629 24.8528 26.5538 24.8528C27.6445 24.8528 27.8261 24.8954 28.1096 25.2055C28.1897 25.2911 31.1565 29.7601 34.7063 35.1433C38.3 40.5921 41.8959 46.0394 45.494 51.4853L49.8241 58.0448L50.0434 57.9004C51.9837 56.6388 54.0367 54.8426 55.6617 52.9714C59.1204 48.9995 61.3498 44.1564 62.0982 38.9922C62.3172 37.4902 62.344 37.0464 62.344 35.0096C62.344 32.973 62.3172 32.5292 62.0982 31.027C60.612 20.7578 53.3041 12.1297 43.3931 8.93295C41.6451 8.36612 39.7849 7.97592 37.6999 7.74077C37.1866 7.68717 33.653 7.62866 33.2095 7.67131L33.2092 7.67104ZM44.4032 24.211C44.6597 24.3392 44.8683 24.5851 44.9433 24.8415C44.9859 24.9807 44.9966 27.953 44.9859 34.6511L44.9698 44.263L43.2753 41.6648L41.5753 39.0669V32.08C41.5753 27.5628 41.5967 25.0234 41.6286 24.9003C41.7142 24.6012 41.9013 24.366 42.158 24.2269C42.377 24.1147 42.4574 24.1038 43.2966 24.1038C44.0879 24.1038 44.2268 24.1147 44.4032 24.211Z" fill="black"/>
</g>
</g>
<defs>
<clipPath id="clip0_27_527">
<rect width="70" height="70" fill="white"/>
</clipPath>
</defs>
</svg>
