<svg width="71" height="71" viewBox="0 0 71 71" fill="none" xmlns="http://www.w3.org/2000/svg">
<g id="skill-icons:dart-light" clip-path="url(#clip0_27_552)">
<g id="Group">
<path id="Vector" d="M54.0938 0.599976H16.9062C7.84533 0.599976 0.5 7.9453 0.5 17.0062V54.1937C0.5 63.2546 7.84533 70.6 16.9062 70.6H54.0938C63.1547 70.6 70.5 63.2546 70.5 54.1937V17.0062C70.5 7.9453 63.1547 0.599976 54.0938 0.599976Z" fill="#F4F2ED"/>
<path id="Vector_2" d="M24.4121 24.3904L21.2293 21.2065L21.2416 44.2031L21.2799 45.2769C21.2955 45.7844 21.3917 46.3534 21.5454 46.9457L46.7509 55.8357L53.0569 53.0442L53.0624 53.0349L24.4105 24.3904H24.4121Z" fill="#00C4B3"/>
<path id="Vector_3" d="M21.5465 46.9457H21.5487C21.5459 46.9351 21.5423 46.9248 21.538 46.9148C21.5435 46.9266 21.5435 46.938 21.5457 46.9457H21.5465ZM53.0511 53.0442L46.7448 55.8357L21.5435 46.9457C22.0242 48.7944 23.0908 50.8723 24.2368 52.0059L32.4577 60.1864L50.7518 60.2093L53.0435 53.0442H53.0511Z" fill="#22D3C5"/>
<path id="Vector_4" d="M21.3157 21.2073L11.5157 36.0077C10.7022 36.8767 11.1083 38.6699 12.4181 39.9911L18.0749 45.6945L21.631 46.9479C21.4773 46.3573 21.3805 45.7943 21.3657 45.2791L21.3275 44.2056L21.3157 21.209V21.2073Z" fill="#0075C9"/>
<path id="Vector_5" d="M46.9587 21.5035C46.3667 21.3534 45.799 21.2588 45.2877 21.2443L44.151 21.2027L21.2296 21.2082L53.0618 53.0357L55.858 46.7295L46.9603 21.5048L46.9587 21.5035Z" fill="#0075C9"/>
<path id="Vector_6" d="M46.9294 21.498C46.9389 21.5014 46.9487 21.504 46.9587 21.5056V21.5026C46.9488 21.5004 46.9395 21.5004 46.9294 21.4963V21.498ZM52.0167 24.2034C50.8593 23.0385 48.8098 21.9732 46.9587 21.5056L55.8566 46.7281L53.0571 53.0341L59.8879 50.8515L59.9032 32.1238L52.0159 24.2028L52.0167 24.2034Z" fill="#00A8E1"/>
<path id="Vector_7" d="M45.7112 17.9695L40.0205 12.3094C38.6929 11.0045 36.8997 10.5968 36.0384 11.4089L21.2389 21.2065L44.1603 21.201L45.2967 21.2426C45.8083 21.2582 46.3765 21.3519 46.968 21.5018L45.7129 17.9682L45.7112 17.9695Z" fill="#00C4B3"/>
</g>
</g>
<defs>
<clipPath id="clip0_27_552">
<rect width="70" height="70" fill="white" transform="translate(0.5 0.599976)"/>
</clipPath>
</defs>
</svg>
