<svg width="70" height="71" viewBox="0 0 70 71" fill="none" xmlns="http://www.w3.org/2000/svg">
<g id="skill-icons:flutter-light" clip-path="url(#clip0_27_540)">
<g id="Group">
<path id="Vector" d="M53.5938 0.599976H16.4062C7.34533 0.599976 0 7.9453 0 17.0062V54.1937C0 63.2546 7.34533 70.6 16.4062 70.6H53.5938C62.6547 70.6 70 63.2546 70 54.1937V17.0062C70 7.9453 62.6547 0.599976 53.5938 0.599976Z" fill="#F4F2ED"/>
<path id="Vector_2" d="M39.6304 11.0076L54.8814 10.9906L29.2945 36.5641L22.6261 43.1952L15.0391 35.5989L39.6304 11.0076ZM39.4885 33.8415C39.6864 33.5801 40.0507 33.7092 40.3271 33.6755L54.8682 33.6791L41.6155 46.9189L33.9891 39.3392L39.4885 33.8415Z" fill="#44D1FD"/>
<path id="Vector_3" d="M26.387 46.9318L33.9891 39.3392L41.6155 46.9189L41.6473 46.9526L33.991 54.5377L26.387 46.9318Z" fill="#1FBCFD"/>
<path id="Vector_4" d="M33.991 54.5377L41.6473 46.9526L54.8737 60.1921C49.8917 60.2034 44.9113 60.1883 39.9312 60.1995C39.6473 60.263 39.4718 60.0035 39.2905 59.843L33.991 54.5377Z" fill="#08589C"/>
</g>
</g>
<defs>
<clipPath id="clip0_27_540">
<rect width="70" height="70" fill="white" transform="translate(0 0.599976)"/>
</clipPath>
</defs>
</svg>
