<svg width="71" height="71" viewBox="0 0 71 71" fill="none" xmlns="http://www.w3.org/2000/svg">
<g id="skill-icons:javascript" clip-path="url(#clip0_27_486)">
<g id="Group">
<path id="Vector" d="M54.0938 0.599976H16.9062C7.84533 0.599976 0.5 7.9453 0.5 17.0062V54.1937C0.5 63.2546 7.84533 70.6 16.9062 70.6H54.0938C63.1547 70.6 70.5 63.2546 70.5 54.1937V17.0062C70.5 7.9453 63.1547 0.599976 54.0938 0.599976Z" fill="#F0DB4F"/>
<path id="Vector_2" d="M18.9056 59.097L24.2623 55.8552C25.2959 57.6875 26.2359 59.2379 28.491 59.2379C30.6525 59.2379 32.0153 58.3924 32.0153 55.1035V32.7368H38.5937V55.1965C38.5937 62.0097 34.5999 65.111 28.7729 65.111C23.5106 65.111 20.456 62.3857 18.9054 59.0965M42.1667 58.3921L47.5228 55.2911C48.9329 57.5937 50.7655 59.2852 54.0074 59.2852C56.7333 59.2852 58.4712 57.9223 58.4712 56.0427C58.4712 53.7874 56.6857 52.9884 53.6784 51.6732L52.0342 50.968C47.2882 48.9479 44.1398 46.4104 44.1398 41.0537C44.1398 36.1198 47.899 32.3606 53.7727 32.3606C57.9547 32.3606 60.962 33.8175 63.1232 37.6234L58.0015 40.9126C56.8735 38.8922 55.6524 38.0935 53.7727 38.0935C51.8461 38.0935 50.6244 39.3152 50.6244 40.9126C50.6244 42.886 51.8461 43.685 54.6652 44.907L56.3097 45.6116C61.9012 48.0083 65.0496 50.4512 65.0496 55.9487C65.0496 61.8697 60.3979 65.1116 54.1484 65.1116C48.0401 65.1116 44.0931 62.1984 42.1667 58.3921Z" fill="#323330"/>
</g>
</g>
<defs>
<clipPath id="clip0_27_486">
<rect width="70" height="70" fill="white" transform="translate(0.5 0.599976)"/>
</clipPath>
</defs>
</svg>
