<svg width="70" height="70" viewBox="0 0 70 70" fill="none" xmlns="http://www.w3.org/2000/svg">
<g id="skill-icons:react-dark" clip-path="url(#clip0_27_514)">
<g id="Group">
<path id="Vector" d="M53.5938 0H16.4062C7.34533 0 0 7.34533 0 16.4062V53.5938C0 62.6547 7.34533 70 16.4062 70H53.5938C62.6547 70 70 62.6547 70 53.5938V16.4062C70 7.34533 62.6547 0 53.5938 0Z" fill="#242938"/>
<path id="Vector_2" d="M35.0003 40.1819C37.8178 40.1819 40.1015 37.8978 40.1015 35.0806C40.1015 32.2634 37.8178 29.9794 35.0003 29.9794C32.183 29.9794 29.899 32.2634 29.899 35.0806C29.899 37.8978 32.183 40.1819 35.0003 40.1819Z" fill="#00D8FF"/>
<path id="Vector_3" d="M35.0005 24.7086C41.8496 24.7086 48.2122 25.6914 53.0097 27.3432C58.7899 29.333 62.3438 32.3493 62.3438 35.0806C62.3438 37.9269 58.5774 41.1313 52.3701 43.1878C47.6774 44.7426 41.5021 45.5541 35.0005 45.5541C28.3347 45.5541 22.0224 44.7923 17.2766 43.1706C11.2725 41.1184 7.65625 37.8727 7.65625 35.0806C7.65625 32.3714 11.0496 29.3784 16.7486 27.3916C21.5638 25.7127 28.0834 24.7086 34.9995 24.7086H35.0005Z" stroke="#00D8FF" stroke-width="1.74043"/>
<path id="Vector_4" d="M25.9714 29.9244C29.3932 23.9914 33.4228 18.9705 37.2504 15.6401C41.8616 11.6268 46.2503 10.0551 48.6161 11.4193C51.0817 12.8412 51.9761 17.7051 50.6568 24.1095C49.6601 28.9513 47.2773 34.706 44.0292 40.3383C40.699 46.1128 36.8859 51.2003 33.1106 54.5002C28.3333 58.6761 23.7147 60.1874 21.2961 58.7926C18.9492 57.4402 18.0518 53.0048 19.1778 47.0753C20.1291 42.0651 22.5165 35.9157 25.9703 29.9244H25.9714Z" stroke="#00D8FF" stroke-width="1.74043"/>
<path id="Vector_5" d="M25.9798 40.3534C22.5485 34.4269 20.2122 28.4271 19.2372 23.4478C18.0633 17.4484 18.8932 12.8614 21.257 11.4932C23.7204 10.0669 28.3806 11.7212 33.2702 16.0628C36.9671 19.3452 40.7632 24.2827 44.0207 29.9095C47.3605 35.6784 49.8635 41.5232 50.8372 46.4418C52.0693 52.6663 51.0721 57.4222 48.6557 58.8208C46.3113 60.1782 42.0208 58.7412 37.4459 54.8043C33.5806 51.4782 29.4451 46.3389 25.9798 40.3534Z" stroke="#00D8FF" stroke-width="1.74043"/>
</g>
</g>
<defs>
<clipPath id="clip0_27_514">
<rect width="70" height="70" fill="white"/>
</clipPath>
</defs>
</svg>
