<svg width="70" height="70" viewBox="0 0 70 70" fill="none" xmlns="http://www.w3.org/2000/svg">
<g id="skill-icons:redux" clip-path="url(#clip0_27_521)">
<g id="Group">
<path id="Vector" d="M53.5938 0H16.4062C7.34533 0 0 7.34533 0 16.4062V53.5938C0 62.6547 7.34533 70 16.4062 70H53.5938C62.6547 70 70 62.6547 70 53.5938V16.4062C70 7.34533 62.6547 0 53.5938 0Z" fill="#764ABC"/>
<path id="Vector_2" d="M45.5489 45.2809C47.5672 45.072 49.0982 43.3321 49.0284 41.2444C48.959 39.1568 47.2191 37.4866 45.1314 37.4866H44.9922C42.8348 37.556 41.1646 39.3654 41.2341 41.5228C41.3038 42.5668 41.7214 43.4713 42.3475 44.0978C39.9815 48.7604 36.3628 52.1705 30.9345 55.0238C27.2461 56.9723 23.4186 57.6682 19.591 57.1812C16.4593 56.7637 14.0238 55.3716 12.4925 53.0753C10.2657 49.6652 10.057 45.9768 11.9358 42.2884C13.2582 39.6437 15.3459 37.6952 16.6682 36.721C16.3898 35.8164 15.9723 34.2852 15.7634 33.1718C5.67273 40.4791 6.71645 50.3611 9.7784 55.0238C12.0753 58.5033 16.7377 60.6607 21.8876 60.6607C23.2794 60.6607 24.6712 60.5215 26.063 60.1734C34.971 58.4338 41.7214 53.1447 45.5489 45.2809Z" fill="white"/>
<path id="Vector_3" d="M57.797 36.6516C52.5082 30.4577 44.7139 27.0479 35.8061 27.0479H34.6927C34.0662 25.795 32.7439 24.96 31.2826 24.96H31.1434C28.986 25.0297 27.3159 26.839 27.3853 28.9964C27.455 31.0841 29.1946 32.7543 31.2826 32.7543H31.4218C32.9528 32.6848 34.2751 31.7106 34.8318 30.3882H36.0845C41.3733 30.3882 46.384 31.9192 50.9075 34.9117C54.387 37.2083 56.8925 40.2008 58.2843 43.8195C59.4675 46.7423 59.3977 49.5956 58.1451 52.0314C56.1966 55.7198 52.9257 57.738 48.6109 57.738C45.8273 57.738 43.1829 56.9029 41.7908 56.2765C41.0255 56.9724 39.6337 58.0858 38.6594 58.7817C41.6516 60.1735 44.7139 60.9391 47.6366 60.9391C54.3175 60.9391 59.2586 57.2507 61.1376 53.5623C63.1559 49.5261 63.0167 42.5669 57.797 36.6516Z" fill="white"/>
<path id="Vector_4" d="M22.4443 46.4641C22.514 48.5518 24.2536 50.222 26.3416 50.222H26.4808C28.6379 50.1523 30.3084 48.3429 30.2386 46.1855C30.1692 44.0978 28.4293 42.4277 26.3416 42.4277H26.2021C26.0632 42.4277 25.8543 42.4277 25.7154 42.4974C22.8618 37.765 21.6789 32.6151 22.0965 27.0479C22.3748 22.8725 23.7666 19.2536 26.2024 16.2608C28.2204 13.6861 32.1177 12.4335 34.7621 12.3638C42.1389 12.2246 45.2706 21.4107 45.4792 25.0991C46.384 25.308 47.915 25.7953 48.959 26.1431C48.1239 14.8695 41.1646 9.02344 34.4837 9.02344C28.2204 9.02344 22.4443 13.5469 20.1477 20.2278C16.9466 29.1356 19.0343 37.6953 22.9313 44.4459C22.5835 44.9329 22.3746 45.6985 22.4443 46.4641Z" fill="white"/>
</g>
</g>
<defs>
<clipPath id="clip0_27_521">
<rect width="70" height="70" fill="white"/>
</clipPath>
</defs>
</svg>
