<svg width="70" height="70" viewBox="0 0 70 70" fill="none" xmlns="http://www.w3.org/2000/svg">
<g id="skill-icons:nodejs-light" clip-path="url(#clip0_27_535)">
<g id="Group">
<path id="Vector" d="M53.5938 0H16.4062C7.34533 0 0 7.34533 0 16.4062V53.5938C0 62.6547 7.34533 70 16.4062 70H53.5938C62.6547 70 70 62.6547 70 53.5938V16.4062C70 7.34533 62.6547 0 53.5938 0Z" fill="#F4F2ED"/>
<path id="Vector_2" d="M32.7791 8.50826C34.1242 7.73853 35.8758 7.73497 37.2195 8.50826C43.9794 12.3282 50.7415 16.1418 57.5004 19.9639C58.7718 20.6801 59.622 22.0948 59.6091 23.5596V46.5407C59.6187 48.0662 58.6843 49.5149 57.3431 50.2146C50.6054 54.0134 43.8709 57.8167 37.1342 61.6156C35.7618 62.4003 33.9749 62.3399 32.6449 61.4906C30.625 60.3197 28.6016 59.1543 26.5814 57.9846C26.1685 57.7385 25.7031 57.5427 25.4116 57.1424C25.6695 56.7951 26.1302 56.7519 26.5046 56.6002C27.3476 56.3319 28.1222 55.9015 28.8966 55.484C29.0927 55.35 29.3316 55.4014 29.5195 55.5212C31.2468 56.5116 32.9591 57.5309 34.6921 58.5118C35.0618 58.7253 35.4361 58.4418 35.7522 58.2657C42.364 54.5286 48.9839 50.806 55.5948 47.0679C55.8398 46.95 55.9751 46.69 55.9552 46.4217C55.9598 38.8407 55.9563 31.2585 55.9576 23.6772C55.9855 23.3731 55.8094 23.0931 55.5341 22.9685C48.8198 19.1871 42.1086 15.4002 35.3954 11.6181C35.2791 11.538 35.1414 11.4951 35.0002 11.4948C34.8591 11.4946 34.7212 11.5371 34.6046 11.6167C27.8912 15.4002 21.1816 19.1909 14.4681 22.9717C14.1939 23.0967 14.0098 23.372 14.0424 23.6772C14.0438 31.2585 14.0424 38.8407 14.0424 46.4228C14.0307 46.5538 14.0595 46.6852 14.1248 46.7993C14.1901 46.9134 14.2889 47.0047 14.4077 47.061C16.199 48.0768 17.9927 49.0856 19.7854 50.0981C20.7955 50.6414 22.0352 50.9646 23.1479 50.5482C24.1298 50.196 24.818 49.1938 24.7994 48.1515C24.8087 40.6147 24.7948 33.0769 24.8063 25.541C24.7816 25.2065 25.0991 24.9301 25.4245 24.9618C26.2853 24.9558 27.1472 24.9501 28.0079 24.964C28.3672 24.9558 28.6144 25.3162 28.5701 25.6531C28.5666 33.2377 28.5794 40.8223 28.5644 48.4066C28.5666 50.4281 27.7361 52.6277 25.8664 53.6167C23.5632 54.8097 20.7162 54.5568 18.4406 53.4127C16.4708 52.4294 14.5906 51.269 12.6558 50.2157C11.311 49.5198 10.3813 48.0654 10.3909 46.541V23.5596C10.3767 22.0645 11.2607 20.624 12.5716 19.9183C19.3082 16.1167 26.0438 12.3118 32.7791 8.50826Z" fill="#81CD39"/>
<path id="Vector_3" d="M38.6564 24.4276C41.5945 24.2383 44.7399 24.3155 47.3837 25.763C49.4309 26.8721 50.5657 29.2001 50.6018 31.4743C50.5447 31.7808 50.2239 31.9501 49.9311 31.929C49.0788 31.9279 48.2259 31.9408 47.3736 31.9233C47.0118 31.9372 46.8018 31.6039 46.7565 31.2843C46.5115 30.196 45.9178 29.1184 44.8938 28.5934C43.3215 27.8064 41.4988 27.8461 39.7841 27.8625C38.5328 27.9287 37.187 28.0372 36.1266 28.773C35.3125 29.3306 35.0654 30.456 35.3557 31.3625C35.6297 32.0133 36.3809 32.2233 36.9956 32.4169C40.5366 33.343 44.2887 33.2506 47.7616 34.4693C49.1999 34.9661 50.6065 35.9322 51.0986 37.4377C51.7426 39.4557 51.4604 41.8674 50.0246 43.4872C48.8603 44.8203 47.1647 45.546 45.4735 45.94C43.2236 46.4417 40.8888 46.4546 38.6039 46.2317C36.4555 45.9867 34.2196 45.4224 32.5612 43.9587C31.1429 42.7271 30.4503 40.8081 30.5189 38.9564C30.5353 38.6436 30.8468 38.4254 31.1464 38.4511C32.0048 38.4442 32.8634 38.4418 33.7217 38.4524C34.0646 38.4278 34.3189 38.7242 34.3364 39.0474C34.4947 40.084 34.8843 41.1723 35.7883 41.7867C37.5331 42.9125 39.7225 42.8354 41.7203 42.8668C43.3751 42.7935 45.2331 42.7714 46.5839 41.6774C47.2965 41.0534 47.5076 40.0094 47.3151 39.1114C47.1065 38.3532 46.3132 37.9999 45.6321 37.7688C42.1367 36.6633 38.3425 37.0645 34.8811 35.814C33.4756 35.3175 32.1166 34.3785 31.5768 32.9347C30.8235 30.8913 31.1686 28.3637 32.7548 26.7988C34.3014 25.2416 36.5337 24.6419 38.6564 24.4276Z" fill="#81CD39"/>
</g>
</g>
<defs>
<clipPath id="clip0_27_535">
<rect width="70" height="70" fill="white"/>
</clipPath>
</defs>
</svg>
