<svg width="70" height="71" viewBox="0 0 70 71" fill="none" xmlns="http://www.w3.org/2000/svg">
<g id="skill-icons:mongodb" clip-path="url(#clip0_27_546)">
<g id="Group">
<path id="Vector" d="M53.5938 0.599976H16.4062C7.34533 0.599976 0 7.9453 0 17.0062V54.1937C0 63.2546 7.34533 70.6 16.4062 70.6H53.5938C62.6547 70.6 70 63.2546 70 54.1937V17.0062C70 7.9453 62.6547 0.599976 53.5938 0.599976Z" fill="#023430"/>
<path id="Vector_2" d="M46.8051 30.0194C43.9239 17.3097 37.9192 13.9262 36.3874 11.5345C35.7557 10.4808 35.1962 9.38557 34.7126 8.25623C34.6317 9.38552 34.483 10.0965 33.5232 10.9529C31.5963 12.6709 23.4123 19.34 22.7235 33.7811C22.0817 47.2457 32.6219 55.5481 34.0143 56.4064C35.0851 56.9333 36.3891 56.4176 37.0254 55.9339C42.1061 52.447 49.0481 43.1507 46.8106 30.0194" fill="#10AA50"/>
<path id="Vector_3" d="M35.149 49.2366C34.8838 52.5692 34.6938 54.5057 34.02 56.4102C34.02 56.4102 34.4622 59.5829 34.7728 62.9437H35.8717C36.1339 60.577 36.5341 58.2276 37.0705 55.9076C35.6478 55.2076 35.2037 52.161 35.149 49.2366Z" fill="#B8C4C2"/>
<path id="Vector_4" d="M37.0686 55.9095C35.6308 55.2454 35.2149 52.1345 35.1509 49.2366C35.5064 44.4561 35.6101 39.6602 35.4616 34.8688C35.3861 32.3548 35.4971 11.5834 34.8422 8.54224C35.2903 9.57224 35.8065 10.5712 36.3874 11.5325C37.9192 13.9262 43.9258 17.3097 46.8051 30.0194C49.0481 43.1283 42.1438 52.4 37.0686 55.9095Z" fill="#12924F"/>
</g>
</g>
<defs>
<clipPath id="clip0_27_546">
<rect width="70" height="70" fill="white" transform="translate(0 0.599976)"/>
</clipPath>
</defs>
</svg>
